<svg xmlns="http://www.w3.org/2000/svg" width="1440" height="717" style="cursor: move;"><g><path class="link" marker-end="url(#arrow)" d="M600,259.5, 758,292" style="stroke-width: 0.52; stroke-opacity: 1; stroke: rgb(80, 80, 80);"></path><path class="link" marker-end="url(#arrow)" d="M600,259.5, 758,387" style="stroke-width: 0.52; stroke-opacity: 1; stroke: rgb(80, 80, 80);"></path><path class="link" marker-end="url(#arrow)" d="M600,339.5, 758,292" style="stroke-width: 0.52; stroke-opacity: 1; stroke: rgb(80, 80, 80);"></path><path class="link" marker-end="url(#arrow)" d="M600,339.5, 758,387" style="stroke-width: 0.52; stroke-opacity: 1; stroke: rgb(80, 80, 80);"></path><path class="link" marker-end="url(#arrow)" d="M758,197, 916,339.5" style="stroke-width: 0.52; stroke-opacity: 1; stroke: rgb(80, 80, 80);"></path><path class="link" marker-end="url(#arrow)" d="M758,292, 916,339.5" style="stroke-width: 0.52; stroke-opacity: 1; stroke: rgb(80, 80, 80);"></path><path class="link" marker-end="url(#arrow)" d="M758,387, 916,339.5" style="stroke-width: 0.52; stroke-opacity: 1; stroke: rgb(80, 80, 80);"></path><path class="link" marker-end="url(#arrow)" d="M600,259.5, 758,482" style="stroke-width: 0.52; stroke-opacity: 1; stroke: rgb(80, 80, 80);"></path><path class="link" marker-end="url(#arrow)" d="M600,339.5, 758,482" style="stroke-width: 0.52; stroke-opacity: 1; stroke: rgb(80, 80, 80);"></path><path class="link" marker-end="url(#arrow)" d="M758,482, 916,339.5" style="stroke-width: 0.52; stroke-opacity: 1; stroke: rgb(80, 80, 80);"></path><path class="link" marker-end="url(#arrow)" d="M600,419.5, 758,292" style="stroke-width: 0.52; stroke-opacity: 1; stroke: rgb(80, 80, 80);"></path><path class="link" marker-end="url(#arrow)" d="M600,419.5, 758,387" style="stroke-width: 0.52; stroke-opacity: 1; stroke: rgb(80, 80, 80);"></path><path class="link" marker-end="url(#arrow)" d="M600,419.5, 758,482" style="stroke-width: 0.52; stroke-opacity: 1; stroke: rgb(80, 80, 80);"></path><circle r="19" class="node" id="0_0" cx="600" cy="259.5" style="fill: rgb(255, 255, 255); stroke: rgb(51, 51, 51);"></circle><circle r="19" class="node" id="0_1" cx="600" cy="339.5" style="fill: rgb(255, 255, 255); stroke: rgb(51, 51, 51);"></circle><circle r="19" class="node" id="0_2" cx="600" cy="419.5" style="fill: rgb(255, 255, 255); stroke: rgb(51, 51, 51);"></circle><circle r="19" class="node" id="1_0" cx="758" cy="197" style="fill: rgb(255, 255, 255); stroke: rgb(51, 51, 51);"></circle><circle r="19" class="node" id="1_1" cx="758" cy="292" style="fill: rgb(255, 255, 255); stroke: rgb(51, 51, 51);"></circle><circle r="19" class="node" id="1_2" cx="758" cy="387" style="fill: rgb(255, 255, 255); stroke: rgb(51, 51, 51);"></circle><circle r="19" class="node" id="1_3" cx="758" cy="482" style="fill: rgb(255, 255, 255); stroke: rgb(51, 51, 51);"></circle><circle r="19" class="node" id="2_0" cx="916" cy="339.5" style="fill: rgb(255, 255, 255); stroke: rgb(51, 51, 51);"></circle><text class="text" dy=".35em" x="565" y="540" style="font-size: 12px;">Input Layer ∈ ℝ³</text><text class="text" dy=".35em" x="723" y="540" style="font-size: 12px;">Hidden Layer ∈ ℝ⁴</text><text class="text" dy=".35em" x="881" y="540" style="font-size: 12px;">Output Layer ∈ ℝ¹</text></g><defs><marker id="arrow" viewBox="0 -5 10 10" markerWidth="7" markerHeight="7" orient="auto" refX="65.19999999999999"><path d="M0,-5L10,0L0,5" style="stroke: rgb(80, 80, 80); fill: rgb(80, 80, 80);"></path></marker></defs></svg>