<svg xmlns="http://www.w3.org/2000/svg" width="1440" height="717" style="cursor: move;"><g transform="translate(-62.88480621132828,-13.271314369141237) scale(0.9986146661010289)"><path class="link" marker-end="url(#arrow)" d="M635,277, 761,338" style="stroke-width: 0.5; stroke-opacity: 1; stroke: rgb(80, 80, 80);"></path><path class="link" marker-end="url(#arrow)" d="M635,277, 761,399" style="stroke-width: 0.5; stroke-opacity: 1; stroke: rgb(80, 80, 80);"></path><path class="link" marker-end="url(#arrow)" d="M635,338, 761,338" style="stroke-width: 0.5; stroke-opacity: 1; stroke: rgb(80, 80, 80);"></path><path class="link" marker-end="url(#arrow)" d="M635,338, 761,399" style="stroke-width: 0.5; stroke-opacity: 1; stroke: rgb(80, 80, 80);"></path><path class="link" marker-end="url(#arrow)" d="M635,399, 761,338" style="stroke-width: 0.5; stroke-opacity: 1; stroke: rgb(80, 80, 80);"></path><path class="link" marker-end="url(#arrow)" d="M635,399, 761,399" style="stroke-width: 0.5; stroke-opacity: 1; stroke: rgb(80, 80, 80);"></path><path class="link" marker-end="url(#arrow)" d="M761,277, 887,277" style="stroke-width: 0.5; stroke-opacity: 1; stroke: rgb(80, 80, 80);"></path><path class="link" marker-end="url(#arrow)" d="M761,277, 887,338" style="stroke-width: 0.5; stroke-opacity: 1; stroke: rgb(80, 80, 80);"></path><path class="link" marker-end="url(#arrow)" d="M761,277, 887,399" style="stroke-width: 0.5; stroke-opacity: 1; stroke: rgb(80, 80, 80);"></path><path class="link" marker-end="url(#arrow)" d="M761,338, 887,277" style="stroke-width: 0.5; stroke-opacity: 1; stroke: rgb(80, 80, 80);"></path><path class="link" marker-end="url(#arrow)" d="M761,338, 887,338" style="stroke-width: 0.5; stroke-opacity: 1; stroke: rgb(80, 80, 80);"></path><path class="link" marker-end="url(#arrow)" d="M761,338, 887,399" style="stroke-width: 0.5; stroke-opacity: 1; stroke: rgb(80, 80, 80);"></path><path class="link" marker-end="url(#arrow)" d="M761,399, 887,277" style="stroke-width: 0.5; stroke-opacity: 1; stroke: rgb(80, 80, 80);"></path><path class="link" marker-end="url(#arrow)" d="M761,399, 887,338" style="stroke-width: 0.5; stroke-opacity: 1; stroke: rgb(80, 80, 80);"></path><path class="link" marker-end="url(#arrow)" d="M761,399, 887,399" style="stroke-width: 0.5; stroke-opacity: 1; stroke: rgb(80, 80, 80);"></path><circle r="20.5" class="node" id="0_0" cx="635" cy="277" style="fill: rgb(255, 255, 255); stroke: rgb(51, 51, 51);"></circle><circle r="20.5" class="node" id="0_1" cx="635" cy="338" style="fill: rgb(255, 255, 255); stroke: rgb(51, 51, 51);"></circle><circle r="20.5" class="node" id="0_2" cx="635" cy="399" style="fill: rgb(255, 255, 255); stroke: rgb(51, 51, 51);"></circle><circle r="20.5" class="node" id="1_0" cx="761" cy="277" style="fill: rgb(255, 255, 255); stroke: rgb(51, 51, 51);"></circle><circle r="20.5" class="node" id="1_1" cx="761" cy="338" style="fill: rgb(255, 255, 255); stroke: rgb(51, 51, 51);"></circle><circle r="20.5" class="node" id="1_2" cx="761" cy="399" style="fill: rgb(255, 255, 255); stroke: rgb(51, 51, 51);"></circle><text class="text" dy=".35em" x="600" y="460" style="font-size: 12px;"></text><text class="text" dy=".35em" x="726" y="460" style="font-size: 12px;"></text><circle r="20.5" class="node" id="2_0" cx="887" cy="277" style="fill: rgb(255, 255, 255); stroke: rgb(51, 51, 51);"></circle><circle r="20.5" class="node" id="2_1" cx="887" cy="338" style="fill: rgb(255, 255, 255); stroke: rgb(51, 51, 51);"></circle><circle r="20.5" class="node" id="2_2" cx="887" cy="399" style="fill: rgb(255, 255, 255); stroke: rgb(51, 51, 51);"></circle><text class="text" dy=".35em" x="852" y="460" style="font-size: 12px;"></text></g><defs><marker id="arrow" viewBox="0 -5 10 10" markerWidth="7" markerHeight="7" orient="auto" refX="69.4"><path d="M0,-5L10,0L0,5" style="stroke: rgb(80, 80, 80); fill: rgb(80, 80, 80);"></path></marker></defs></svg>